G04 DipTrace 3.1.0.1*
G04 BottomMask.gbr*
%MOIN*%
G04 #@! TF.FileFunction,Soldermask,Bot*
G04 #@! TF.Part,Single*
%ADD52C,0.068*%
%ADD54C,0.098551*%
%ADD56R,0.098551X0.098551*%
%ADD58C,0.128*%
%ADD60R,0.128X0.128*%
%ADD62C,0.173*%
%ADD64O,0.082803X0.078866*%
%ADD66R,0.082803X0.078866*%
%ADD68C,0.12611*%
%FSLAX26Y26*%
G04*
G70*
G90*
G75*
G01*
G04 BotMask*
%LPD*%
D68*
X2031500Y931500D3*
Y695280D3*
X2216539Y813390D3*
D66*
X569000Y2369000D3*
D64*
Y2270575D3*
D62*
X519000Y519000D3*
Y2769000D3*
X2369000D3*
Y519000D3*
D60*
X1494000Y2694000D3*
D58*
X1297150D3*
X1100299D3*
X903449D3*
D56*
X1844000Y1844000D3*
D54*
X1981795D3*
X2119591D3*
X2257386D3*
D52*
X794000Y469000D3*
Y569000D3*
Y669000D3*
Y769000D3*
Y869000D3*
Y969000D3*
Y1069000D3*
Y1169000D3*
Y1269000D3*
Y1369000D3*
Y1469000D3*
Y1569000D3*
Y1669000D3*
Y1769000D3*
Y1869000D3*
Y1969000D3*
Y2069000D3*
Y2169000D3*
Y2269000D3*
X1694000Y469000D3*
Y569000D3*
Y669000D3*
Y769000D3*
Y869000D3*
Y969000D3*
Y1069000D3*
Y1169000D3*
Y1269000D3*
Y1369000D3*
Y1469000D3*
Y1569000D3*
Y1669000D3*
Y1769000D3*
Y1869000D3*
Y1969000D3*
Y2069000D3*
Y2169000D3*
Y2269000D3*
M02*
