G04 DipTrace 3.1.0.1*
G04 BottomSilk.gbr*
%MOIN*%
G04 #@! TF.FileFunction,Legend,Bot*
G04 #@! TF.Part,Single*
%ADD78C,0.012351*%
%FSLAX26Y26*%
G04*
G70*
G90*
G75*
G01*
G04 BotSilk*
%LPD*%
X1411127Y498029D2*
D78*
X1330743D1*
X1411127Y471234D2*
Y524824D1*
Y549526D2*
X1330743Y568716D1*
X1411127Y587817D1*
X1330743Y606918D1*
X1411127Y626108D1*
X1330743Y712093D2*
X1411127Y681408D1*
X1330743Y650811D1*
X1357538Y662307D2*
Y700597D1*
X1411127Y790386D2*
X1330743D1*
X1411127Y736796D1*
X1330743D1*
X1392026Y872480D2*
X1399631Y868678D1*
X1407325Y860984D1*
X1411127Y853379D1*
Y838081D1*
X1407325Y830387D1*
X1399631Y822782D1*
X1392026Y818891D1*
X1380530Y815088D1*
X1361340D1*
X1349933Y818891D1*
X1342239Y822782D1*
X1334634Y830387D1*
X1330743Y838081D1*
Y853379D1*
X1334634Y860984D1*
X1342239Y868678D1*
X1349933Y872480D1*
X1361340D1*
Y853379D1*
X1411039Y904877D2*
Y946881D1*
X1380442Y923978D1*
Y935474D1*
X1376639Y943079D1*
X1372837Y946881D1*
X1361340Y950772D1*
X1353735D1*
X1342239Y946881D1*
X1334546Y939276D1*
X1330743Y927780D1*
Y916284D1*
X1334546Y904877D1*
X1338437Y901074D1*
X1346042Y897183D1*
X1391938Y979366D2*
X1395740D1*
X1403434Y983169D1*
X1407236Y986971D1*
X1411039Y994665D1*
Y1009963D1*
X1407236Y1017569D1*
X1403434Y1021371D1*
X1395740Y1025262D1*
X1388135D1*
X1380442Y1021371D1*
X1369034Y1013766D1*
X1330743Y975475D1*
Y1029065D1*
X1399631Y1185118D2*
X1407325Y1177513D1*
X1411127Y1166017D1*
Y1150718D1*
X1407325Y1139222D1*
X1399631Y1131529D1*
X1392026D1*
X1384333Y1135420D1*
X1380530Y1139222D1*
X1376727Y1146828D1*
X1369034Y1169820D1*
X1365231Y1177513D1*
X1361340Y1181316D1*
X1353735Y1185118D1*
X1342239D1*
X1334634Y1177513D1*
X1330743Y1166017D1*
Y1150719D1*
X1334634Y1139222D1*
X1342239Y1131529D1*
X1411127Y1209821D2*
X1330743D1*
X1369034D2*
X1380530Y1221317D1*
X1384333Y1229011D1*
Y1240507D1*
X1380530Y1248112D1*
X1369034Y1251914D1*
X1330743D1*
X1411127Y1276617D2*
X1407325Y1280420D1*
X1411127Y1284311D1*
X1415018Y1280420D1*
X1411127Y1276617D1*
X1384333Y1280420D2*
X1330743D1*
X1361340Y1309013D2*
Y1354909D1*
X1369034D1*
X1376727Y1351107D1*
X1380530Y1347304D1*
X1384333Y1339611D1*
Y1328115D1*
X1380530Y1320509D1*
X1372836Y1312816D1*
X1361340Y1309013D1*
X1353735D1*
X1342239Y1312816D1*
X1334634Y1320509D1*
X1330743Y1328115D1*
Y1339611D1*
X1334634Y1347304D1*
X1342239Y1354909D1*
X1411127Y1379612D2*
X1330743D1*
X1411127Y1450211D2*
X1330743D1*
X1372836D2*
X1380530Y1442606D1*
X1384333Y1434912D1*
Y1423416D1*
X1380530Y1415811D1*
X1372836Y1408117D1*
X1361340Y1404315D1*
X1353735D1*
X1342239Y1408117D1*
X1334634Y1415811D1*
X1330743Y1423416D1*
Y1434912D1*
X1334634Y1442606D1*
X1342239Y1450211D1*
X1411127Y1552675D2*
X1330743Y1583272D1*
X1411127Y1613869D1*
X1391938Y1642463D2*
X1395740D1*
X1403434Y1646266D1*
X1407236Y1650068D1*
X1411039Y1657762D1*
Y1673060D1*
X1407236Y1680665D1*
X1403434Y1684468D1*
X1395740Y1688359D1*
X1388135D1*
X1380442Y1684468D1*
X1369034Y1676863D1*
X1330743Y1638572D1*
Y1692161D1*
X1273627Y504557D2*
X1193243D1*
Y539046D1*
X1197134Y550542D1*
X1200937Y554344D1*
X1208542Y558147D1*
X1220038D1*
X1227731Y554344D1*
X1231534Y550542D1*
X1235337Y539046D1*
X1239227Y550542D1*
X1243030Y554344D1*
X1250635Y558147D1*
X1258329D1*
X1265934Y554344D1*
X1269825Y550542D1*
X1273627Y539046D1*
Y504557D1*
X1235337D2*
Y539046D1*
X1200937Y586652D2*
X1197046Y582850D1*
X1193243Y586652D1*
X1197046Y590543D1*
X1200937Y586652D1*
X1273627Y693007D2*
X1193243D1*
Y719802D1*
X1197134Y731298D1*
X1204739Y738992D1*
X1212433Y742794D1*
X1223840Y746597D1*
X1243030D1*
X1254526Y742794D1*
X1262131Y738992D1*
X1269825Y731298D1*
X1273627Y719802D1*
Y693007D1*
X1246833Y771300D2*
X1193243D1*
X1223840D2*
X1235337Y775190D1*
X1243030Y782796D1*
X1246833Y790489D1*
Y801985D1*
X1273627Y826688D2*
X1269825Y830490D1*
X1273627Y834381D1*
X1277518Y830490D1*
X1273627Y826688D1*
X1246833Y830490D2*
X1193243D1*
X1246833Y859084D2*
X1193243D1*
X1231534D2*
X1243030Y870580D1*
X1246833Y878274D1*
Y889681D1*
X1243030Y897375D1*
X1231534Y901178D1*
X1193243D1*
X1243030Y971776D2*
X1181747D1*
X1170340Y967974D1*
X1166449Y964171D1*
X1162646Y956478D1*
Y944981D1*
X1166449Y937376D1*
X1231534Y971776D2*
X1239139Y964171D1*
X1243030Y956478D1*
Y944981D1*
X1239139Y937376D1*
X1231534Y929683D1*
X1220038Y925880D1*
X1212344D1*
X1200937Y929683D1*
X1193243Y937376D1*
X1189441Y944981D1*
Y956478D1*
X1193243Y964171D1*
X1200937Y971776D1*
X1294585Y1101035D2*
X1286980Y1093342D1*
X1275484Y1085737D1*
X1260186Y1078043D1*
X1240996Y1074240D1*
X1225697D1*
X1206596Y1078043D1*
X1191298Y1085737D1*
X1179802Y1093342D1*
X1172197Y1101035D1*
X1235336Y1171722D2*
X1243030Y1164029D1*
X1246833Y1156335D1*
Y1144928D1*
X1243030Y1137234D1*
X1235336Y1129629D1*
X1223840Y1125738D1*
X1216235D1*
X1204739Y1129629D1*
X1197134Y1137234D1*
X1193243Y1144928D1*
Y1156335D1*
X1197134Y1164029D1*
X1204739Y1171722D1*
X1294585Y1196425D2*
X1286980Y1204119D1*
X1275484Y1211724D1*
X1260186Y1219417D1*
X1240996Y1223220D1*
X1225697D1*
X1206596Y1219417D1*
X1191298Y1211724D1*
X1179802Y1204119D1*
X1172197Y1196425D1*
X1254438Y1329575D2*
X1258240D1*
X1265934Y1333378D1*
X1269736Y1337180D1*
X1273539Y1344874D1*
Y1360172D1*
X1269736Y1367777D1*
X1265934Y1371580D1*
X1258240Y1375471D1*
X1250635D1*
X1242942Y1371580D1*
X1231534Y1363975D1*
X1193243Y1325684D1*
Y1379273D1*
X1273539Y1426968D2*
X1269736Y1415472D1*
X1258240Y1407779D1*
X1239139Y1403976D1*
X1227643D1*
X1208542Y1407779D1*
X1197046Y1415472D1*
X1193243Y1426968D1*
Y1434573D1*
X1197046Y1446069D1*
X1208542Y1453675D1*
X1227643Y1457565D1*
X1239139D1*
X1258240Y1453674D1*
X1269736Y1446069D1*
X1273539Y1434573D1*
Y1426968D1*
X1258240Y1453674D2*
X1208542Y1407779D1*
X1258240Y1482268D2*
X1262131Y1489962D1*
X1273539Y1501458D1*
X1193243D1*
X1273539Y1545262D2*
X1269736Y1533854D1*
X1262131Y1529963D1*
X1254438D1*
X1246833Y1533854D1*
X1242942Y1541459D1*
X1239139Y1556758D1*
X1235336Y1568254D1*
X1227643Y1575859D1*
X1220038Y1579661D1*
X1208542D1*
X1200937Y1575859D1*
X1197046Y1572056D1*
X1193243Y1560560D1*
Y1545262D1*
X1197046Y1533854D1*
X1200937Y1529963D1*
X1208542Y1526161D1*
X1220038D1*
X1227643Y1529963D1*
X1235336Y1537657D1*
X1239139Y1549064D1*
X1242942Y1564363D1*
X1246833Y1572056D1*
X1254438Y1575859D1*
X1262131D1*
X1269736Y1572056D1*
X1273539Y1560560D1*
Y1545262D1*
X1123627Y529030D2*
X1119825Y521336D1*
X1112131Y513731D1*
X1104526Y509840D1*
X1093030Y506038D1*
X1073840D1*
X1062433Y509840D1*
X1054739Y513731D1*
X1047134Y521336D1*
X1043243Y529030D1*
Y544328D1*
X1047134Y551933D1*
X1054739Y559627D1*
X1062433Y563430D1*
X1073840Y567232D1*
X1093030D1*
X1104526Y563430D1*
X1112131Y559627D1*
X1119825Y551933D1*
X1123627Y544328D1*
Y529030D1*
X1096833Y591935D2*
X1016449D1*
X1085337D2*
X1092942Y599628D1*
X1096833Y607233D1*
Y618730D1*
X1092942Y626423D1*
X1085337Y634028D1*
X1073840Y637919D1*
X1066147D1*
X1054739Y634028D1*
X1047046Y626423D1*
X1043243Y618730D1*
Y607233D1*
X1047046Y599628D1*
X1054739Y591935D1*
X1073840Y662622D2*
Y708518D1*
X1081534D1*
X1089227Y704715D1*
X1093030Y700913D1*
X1096833Y693219D1*
Y681723D1*
X1093030Y674118D1*
X1085337Y666424D1*
X1073840Y662622D1*
X1066235D1*
X1054739Y666424D1*
X1047134Y674118D1*
X1043243Y681723D1*
Y693219D1*
X1047134Y700913D1*
X1054739Y708518D1*
X1096833Y733221D2*
X1043243D1*
X1081534D2*
X1093030Y744717D1*
X1096833Y752410D1*
Y763818D1*
X1093030Y771511D1*
X1081534Y775314D1*
X1043243D1*
X1112131Y931367D2*
X1119825Y923762D1*
X1123627Y912266D1*
Y896968D1*
X1119825Y885472D1*
X1112131Y877778D1*
X1104526D1*
X1096833Y881669D1*
X1093030Y885472D1*
X1089227Y893077D1*
X1081534Y916069D1*
X1077731Y923762D1*
X1073840Y927565D1*
X1066235Y931367D1*
X1054739D1*
X1047134Y923762D1*
X1043243Y912266D1*
Y896968D1*
X1047134Y885472D1*
X1054739Y877778D1*
X1096833Y975171D2*
X1093030Y967566D1*
X1085337Y959873D1*
X1073840Y956070D1*
X1066235D1*
X1054739Y959873D1*
X1047134Y967566D1*
X1043243Y975171D1*
Y986668D1*
X1047134Y994361D1*
X1054739Y1001966D1*
X1066235Y1005857D1*
X1073840D1*
X1085337Y1001966D1*
X1093030Y994361D1*
X1096833Y986668D1*
Y975171D1*
Y1030560D2*
X1058542D1*
X1047134Y1034362D1*
X1043243Y1042056D1*
Y1053552D1*
X1047134Y1061157D1*
X1058542Y1072653D1*
X1096833D2*
X1043243D1*
X1096833Y1097356D2*
X1043243D1*
X1073840D2*
X1085337Y1101247D1*
X1093030Y1108852D1*
X1096833Y1116546D1*
Y1128042D1*
X1085337Y1198729D2*
X1093030Y1191035D1*
X1096833Y1183342D1*
Y1171934D1*
X1093030Y1164240D1*
X1085337Y1156635D1*
X1073840Y1152744D1*
X1066235D1*
X1054739Y1156635D1*
X1047134Y1164240D1*
X1043243Y1171934D1*
Y1183342D1*
X1047134Y1191035D1*
X1054739Y1198729D1*
X1073840Y1223431D2*
Y1269327D1*
X1081534D1*
X1089227Y1265525D1*
X1093030Y1261722D1*
X1096833Y1254029D1*
Y1242533D1*
X1093030Y1234927D1*
X1085337Y1227234D1*
X1073840Y1223431D1*
X1066235D1*
X1054739Y1227234D1*
X1047134Y1234928D1*
X1043243Y1242533D1*
Y1254029D1*
X1047134Y1261722D1*
X1054739Y1269327D1*
X1104526Y1429183D2*
X1112131Y1425381D1*
X1119825Y1417687D1*
X1123627Y1410082D1*
Y1394784D1*
X1119825Y1387090D1*
X1112131Y1379485D1*
X1104526Y1375594D1*
X1093030Y1371792D1*
X1073840D1*
X1062433Y1375594D1*
X1054739Y1379485D1*
X1047134Y1387090D1*
X1043243Y1394784D1*
Y1410082D1*
X1047134Y1417687D1*
X1054739Y1425381D1*
X1062433Y1429183D1*
X1104526Y1511278D2*
X1112131Y1507476D1*
X1119825Y1499782D1*
X1123627Y1492177D1*
Y1476878D1*
X1119825Y1469185D1*
X1112131Y1461580D1*
X1104526Y1457689D1*
X1093030Y1453886D1*
X1073840D1*
X1062433Y1457689D1*
X1054739Y1461580D1*
X1047134Y1469185D1*
X1043243Y1476878D1*
Y1492177D1*
X1047134Y1499782D1*
X1054739Y1507476D1*
X1062433Y1511278D1*
X1043243Y1574272D2*
X1123539D1*
X1070038Y1535981D1*
Y1593373D1*
X1050937Y1621878D2*
X1047046Y1618076D1*
X1043243Y1621878D1*
X1047046Y1625769D1*
X1050937Y1621878D1*
X1123539Y1673464D2*
X1119736Y1661968D1*
X1108240Y1654274D1*
X1089139Y1650472D1*
X1077643D1*
X1058542Y1654274D1*
X1047046Y1661968D1*
X1043243Y1673464D1*
Y1681069D1*
X1047046Y1692565D1*
X1058542Y1700170D1*
X1077643Y1704061D1*
X1089139D1*
X1108240Y1700170D1*
X1119736Y1692565D1*
X1123539Y1681069D1*
Y1673464D1*
X1108240Y1700170D2*
X1058542Y1654274D1*
X1083391Y1728764D2*
Y1772980D1*
X1043243Y1858965D2*
X1123627Y1828280D1*
X1043243Y1797683D1*
X1070038Y1809179D2*
Y1847469D1*
X1083391Y1883668D2*
Y1927884D1*
X1112131Y2006176D2*
X1119825Y1998571D1*
X1123627Y1987075D1*
Y1971776D1*
X1119825Y1960280D1*
X1112131Y1952587D1*
X1104526D1*
X1096833Y1956478D1*
X1093030Y1960280D1*
X1089227Y1967885D1*
X1081534Y1990877D1*
X1077731Y1998571D1*
X1073840Y2002373D1*
X1066235Y2006176D1*
X1054739D1*
X1047134Y1998571D1*
X1043243Y1987075D1*
Y1971776D1*
X1047134Y1960280D1*
X1054739Y1952587D1*
X1043243Y2092161D2*
X1123627Y2061476D1*
X1043243Y2030879D1*
X1070038Y2042375D2*
Y2080665D1*
X954438Y550677D2*
Y539181D1*
X950635Y531576D1*
X946833Y527685D1*
X939139Y523882D1*
X923840D1*
X920038Y527685D1*
Y535378D1*
X923840Y550677D1*
X916235Y554480D1*
Y558282D1*
X923840Y565976D1*
X942942Y569778D1*
X954438Y565976D1*
X962131Y562173D1*
X969736Y554480D1*
X973539Y546874D1*
Y531576D1*
X969736Y523882D1*
X962131Y516277D1*
X954438Y512386D1*
X942942Y508584D1*
X923840D1*
X912344Y512386D1*
X904739Y516277D1*
X897046Y523882D1*
X893243Y531576D1*
Y546874D1*
X897046Y554480D1*
X904739Y562173D1*
X958240Y550677D2*
X923840D1*
X973627Y594481D2*
X893243D1*
X935336D2*
X943030Y602174D1*
X946833Y609780D1*
Y621276D1*
X943030Y628881D1*
X935336Y636574D1*
X923840Y640377D1*
X916235D1*
X904739Y636574D1*
X897134Y628881D1*
X893243Y621276D1*
Y609780D1*
X897134Y602174D1*
X904739Y594481D1*
X946833Y665080D2*
X908542D1*
X897134Y668882D1*
X893243Y676576D1*
Y688072D1*
X897134Y695677D1*
X908542Y707173D1*
X946833D2*
X893243D1*
X973627Y731876D2*
X969825Y735678D1*
X973627Y739569D1*
X977518Y735678D1*
X973627Y731876D1*
X946833Y735678D2*
X893243D1*
X973627Y764272D2*
X893243D1*
X973627Y834871D2*
X893243D1*
X935336D2*
X943030Y827265D1*
X946833Y819572D1*
Y808076D1*
X943030Y800471D1*
X935336Y792777D1*
X923840Y788975D1*
X916235D1*
X904739Y792777D1*
X897134Y800471D1*
X893243Y808076D1*
Y819572D1*
X897134Y827265D1*
X904739Y834871D1*
X973627Y859573D2*
X893243D1*
X946833Y903377D2*
X943030Y895772D1*
X935336Y888079D1*
X923840Y884276D1*
X916235D1*
X904739Y888079D1*
X897134Y895772D1*
X893243Y903377D1*
Y914873D1*
X897134Y922567D1*
X904739Y930172D1*
X916235Y934063D1*
X923840D1*
X935336Y930172D1*
X943030Y922567D1*
X946833Y914873D1*
Y903377D1*
X943030Y1004661D2*
X881747D1*
X870339Y1000859D1*
X866449Y997056D1*
X862646Y989363D1*
Y977867D1*
X866449Y970262D1*
X931534Y1004661D2*
X939139Y997056D1*
X943030Y989363D1*
Y977867D1*
X939139Y970262D1*
X931534Y962568D1*
X920038Y958766D1*
X912344D1*
X900937Y962568D1*
X893243Y970262D1*
X889441Y977867D1*
Y989363D1*
X893243Y997056D1*
X900937Y1004661D1*
X609333Y816802D2*
X555743Y832101D1*
X609333Y847399D1*
X555743Y862698D1*
X609333Y877996D1*
Y902699D2*
X555743Y917998D1*
X609333Y933296D1*
X555743Y948595D1*
X609333Y963894D1*
Y988596D2*
X555743Y1003895D1*
X609333Y1019194D1*
X555743Y1034492D1*
X609333Y1049791D1*
X563437Y1078296D2*
X559546Y1074494D1*
X555743Y1078296D1*
X559546Y1082187D1*
X563437Y1078296D1*
X636127Y1106890D2*
X555743D1*
X597837D2*
X605530Y1114583D1*
X609333Y1122189D1*
Y1133685D1*
X605530Y1141290D1*
X597837Y1148983D1*
X586340Y1152786D1*
X578735D1*
X567239Y1148983D1*
X559634Y1141290D1*
X555743Y1133685D1*
Y1122189D1*
X559634Y1114583D1*
X567239Y1106890D1*
X609333Y1177489D2*
X571042D1*
X559634Y1181291D1*
X555743Y1188985D1*
Y1200481D1*
X559634Y1208086D1*
X571042Y1219582D1*
X609333D2*
X555743D1*
X636127Y1244285D2*
X632325Y1248087D1*
X636127Y1251978D1*
X640018Y1248087D1*
X636127Y1244285D1*
X609333Y1248087D2*
X555743D1*
X636127Y1276681D2*
X555743D1*
X636127Y1347280D2*
X555743D1*
X597836D2*
X605530Y1339674D1*
X609333Y1331981D1*
Y1320485D1*
X605530Y1312880D1*
X597836Y1305186D1*
X586340Y1301384D1*
X578735D1*
X567239Y1305186D1*
X559634Y1312880D1*
X555743Y1320485D1*
Y1331981D1*
X559634Y1339674D1*
X567239Y1347280D1*
X636127Y1371982D2*
X555743D1*
X609333Y1415786D2*
X605530Y1408181D1*
X597836Y1400488D1*
X586340Y1396685D1*
X578735D1*
X567239Y1400488D1*
X559634Y1408181D1*
X555743Y1415786D1*
Y1427282D1*
X559634Y1434976D1*
X567239Y1442581D1*
X578735Y1446472D1*
X586340D1*
X597836Y1442581D1*
X605530Y1434976D1*
X609333Y1427282D1*
Y1415786D1*
X605530Y1517071D2*
X544247D1*
X532840Y1513268D1*
X528949Y1509465D1*
X525146Y1501772D1*
Y1490276D1*
X528949Y1482671D1*
X594034Y1517071D2*
X601639Y1509465D1*
X605530Y1501772D1*
Y1490276D1*
X601639Y1482671D1*
X594034Y1474977D1*
X582538Y1471175D1*
X574844D1*
X563437Y1474977D1*
X555743Y1482671D1*
X551941Y1490276D1*
Y1501772D1*
X555743Y1509465D1*
X563437Y1517071D1*
Y1545576D2*
X559546Y1541773D1*
X555743Y1545576D1*
X559546Y1549467D1*
X563437Y1545576D1*
X609333Y1574170D2*
X555743D1*
X594034D2*
X605530Y1585666D1*
X609333Y1593359D1*
Y1604767D1*
X605530Y1612460D1*
X594034Y1616263D1*
X555743D1*
X586340Y1640966D2*
Y1686861D1*
X594034D1*
X601727Y1683059D1*
X605530Y1679256D1*
X609333Y1671563D1*
Y1660067D1*
X605530Y1652462D1*
X597836Y1644768D1*
X586340Y1640966D1*
X578735D1*
X567239Y1644768D1*
X559634Y1652462D1*
X555743Y1660067D1*
Y1671563D1*
X559634Y1679256D1*
X567239Y1686862D1*
X636127Y1723060D2*
X571042D1*
X559634Y1726863D1*
X555743Y1734556D1*
Y1742161D1*
X609333Y1711564D2*
Y1738359D1*
M02*
