M48
INCH
T01C0.0191
T02C0.035
T03C0.0433
T04C0.0551
T05C0.063
T06C0.0787
T07C0.125
%
T01
X+010190Y+016440
X+011190Y+016440
X+013190Y+017940
X+013190Y+018940
X+012940Y+022690
X+012190Y+022690
X+011190Y+022690
X+010190Y+022690
X+012690Y+014190
X+013690Y+014190
X+014940Y+012690
X+014190Y+011690
T02
X+007940Y+004690
X+007940Y+005690
X+007940Y+006690
X+007940Y+007690
X+007940Y+008690
X+007940Y+009690
X+007940Y+010690
X+007940Y+011690
X+007940Y+012690
X+007940Y+013690
X+007940Y+014690
X+007940Y+015690
X+007940Y+016690
X+007940Y+017690
X+007940Y+018690
X+007940Y+019690
X+007940Y+020690
X+007940Y+021690
X+007940Y+022690
X+016940Y+022690
X+016940Y+021690
X+016940Y+020690
X+016940Y+019690
X+016940Y+018690
X+016940Y+017690
X+016940Y+016690
X+016940Y+015690
X+016940Y+014690
X+016940Y+013690
X+016940Y+012690
X+016940Y+011690
X+016940Y+010690
X+016940Y+009690
X+016940Y+008690
X+016940Y+007690
X+016940Y+006690
X+016940Y+005690
X+016940Y+004690
T03
X+005690Y+023690
X+005690Y+022706
T04
X+018440Y+018440
X+019818Y+018440
X+021196Y+018440
X+022574Y+018440
T05
X+014940Y+026940
X+012971Y+026940
X+011003Y+026940
X+009034Y+026940
T06
X+020315Y+009315
X+022165Y+008134
X+020315Y+006953
T07
X+005190Y+005190
X+023690Y+005190
X+023690Y+027690
X+005190Y+027690
T00
M30
