G04 DipTrace 3.1.0.1*
G04 TopSilk.gbr*
%MOIN*%
G04 #@! TF.FileFunction,Legend,Top*
G04 #@! TF.Part,Single*
%ADD10C,0.009843*%
%ADD19C,0.031465*%
%ADD22C,0.023631*%
%ADD25C,0.02499*%
%ADD76C,0.006176*%
%ADD77C,0.009264*%
%ADD79C,0.010807*%
%FSLAX26Y26*%
G04*
G70*
G90*
G75*
G01*
G04 TopSilk*
%LPD*%
X1914069Y1141244D2*
D10*
Y1284957D1*
Y1141244D2*
X2254652D1*
X1914069Y1403043D2*
Y1546756D1*
X2254652D1*
X2319600Y1206207D2*
Y1284957D1*
Y1403043D2*
Y1481793D1*
Y1206207D2*
X2254652Y1141244D1*
X2319600Y1481793D2*
X2254652Y1546756D1*
D19*
X2353031Y1273137D3*
X1100465Y1194787D2*
D10*
X1037535D1*
X1100465Y1187339D2*
X1037535D1*
X1100465D2*
Y1210898D1*
X1037535Y1187339D2*
Y1210898D1*
X987535Y2153449D2*
X1050465D1*
X987535Y2160898D2*
X1050465D1*
X987535D2*
Y2137339D1*
X1050465Y2160898D2*
Y2137339D1*
X1337535Y1553449D2*
X1400465D1*
X1337535Y1560898D2*
X1400465D1*
X1337535D2*
Y1537339D1*
X1400465Y1560898D2*
Y1537339D1*
X1350465Y2144787D2*
X1287535D1*
X1350465Y2137339D2*
X1287535D1*
X1350465D2*
Y2160898D1*
X1287535Y2137339D2*
Y2160898D1*
X1250465Y2144787D2*
X1187535D1*
X1250465Y2137339D2*
X1187535D1*
X1250465D2*
Y2160898D1*
X1187535Y2137339D2*
Y2160898D1*
X1237535Y1553449D2*
X1300465D1*
X1237535Y1560898D2*
X1300465D1*
X1237535D2*
Y1537339D1*
X1300465Y1560898D2*
Y1537339D1*
X1150465Y2144787D2*
X1087535D1*
X1150465Y2137339D2*
X1087535D1*
X1150465D2*
Y2160898D1*
X1087535Y2137339D2*
Y2160898D1*
X1067028Y739869D2*
X1244200D1*
X1067028Y598133D2*
X1244200D1*
Y739869D2*
Y730019D1*
X1067028Y739869D2*
Y730019D1*
X1244200Y607984D2*
Y598133D1*
X1067028Y607984D2*
Y598133D1*
D22*
X995186Y669001D3*
X2208700Y736583D2*
D10*
Y392130D1*
X1854343D1*
Y396080D1*
Y392130D2*
Y959078D1*
X1960624D1*
X2102334D2*
X2208700D1*
Y890139D1*
X698918Y2465457D2*
X476476D1*
Y2174118D1*
X698918D1*
Y2465457D1*
X506506Y2393991D2*
X481489D1*
Y2244010D1*
X506506D1*
Y2393991D1*
D25*
X706504Y2368994D3*
X468994D3*
X1037535Y1435898D2*
D10*
Y1412339D1*
X1100465Y1435898D2*
Y1412339D1*
X975465D2*
Y1435898D1*
X912535Y1412339D2*
Y1435898D1*
X975465Y1112339D2*
Y1135898D1*
X912535Y1112339D2*
Y1135898D1*
X1592425Y2516835D2*
X805024D1*
Y2871165D1*
X1592425D1*
Y2516835D1*
X1788173Y1981795D2*
X2313213D1*
Y1706205D1*
X1788173D1*
Y1981795D1*
X744000Y2319000D2*
X1744000D1*
Y419000D1*
X744000D1*
Y2319000D1*
X844000D2*
Y419000D1*
X1644000Y2319000D2*
Y419000D1*
X1094000Y568910D2*
X1394000D1*
Y419000D1*
X1094000D1*
Y568910D1*
X991243Y1910931D2*
Y1777069D1*
X1396759Y1910931D2*
X991243D1*
Y1777069D2*
X1396759D1*
Y1828253D1*
Y1910931D2*
Y1859747D1*
G03X1396759Y1828253I-1864J-15747D01*
G01*
X2345210Y1570784D2*
D76*
X2343308Y1574586D1*
X2339461Y1578433D1*
X2335659Y1580334D1*
X2328010D1*
X2324163Y1578433D1*
X2320360Y1574586D1*
X2318415Y1570784D1*
X2316514Y1565036D1*
Y1555441D1*
X2318415Y1549737D1*
X2320360Y1545890D1*
X2324163Y1542088D1*
X2328010Y1540142D1*
X2335659D1*
X2339461Y1542088D1*
X2343308Y1545890D1*
X2345210Y1549737D1*
X2357561Y1572641D2*
X2361408Y1574586D1*
X2367156Y1580290D1*
Y1540142D1*
X1134539Y1193893D2*
X1130737Y1191992D1*
X1126890Y1188145D1*
X1124989Y1184343D1*
X1124988Y1176693D1*
X1126890Y1172847D1*
X1130737Y1169044D1*
X1134539Y1167099D1*
X1140287Y1165197D1*
X1149882D1*
X1155586Y1167099D1*
X1159432Y1169044D1*
X1163235Y1172847D1*
X1165181Y1176693D1*
Y1184343D1*
X1163235Y1188145D1*
X1159433Y1191992D1*
X1155586Y1193893D1*
X1134583Y1208190D2*
X1132682D1*
X1128835Y1210091D1*
X1126934Y1211993D1*
X1125033Y1215839D1*
Y1223489D1*
X1126934Y1227291D1*
X1128835Y1229192D1*
X1132682Y1231138D1*
X1136485D1*
X1140331Y1229192D1*
X1146035Y1225390D1*
X1165181Y1206244D1*
Y1233039D1*
X934539Y2143893D2*
X930737Y2141992D1*
X926890Y2138145D1*
X924989Y2134343D1*
X924988Y2126693D1*
X926890Y2122847D1*
X930737Y2119044D1*
X934539Y2117099D1*
X940287Y2115197D1*
X949882D1*
X955586Y2117099D1*
X959432Y2119044D1*
X963235Y2122847D1*
X965181Y2126693D1*
Y2134343D1*
X963235Y2138145D1*
X959433Y2141992D1*
X955586Y2143893D1*
X925033Y2160091D2*
Y2181094D1*
X940331Y2169642D1*
Y2175390D1*
X942233Y2179192D1*
X944134Y2181094D1*
X949882Y2183039D1*
X953684D1*
X959432Y2181094D1*
X963279Y2177291D1*
X965181Y2171543D1*
Y2165795D1*
X963279Y2160091D1*
X961334Y2158190D1*
X957531Y2156244D1*
X1434539Y1542943D2*
X1430737Y1541041D1*
X1426890Y1537194D1*
X1424989Y1533392D1*
X1424988Y1525743D1*
X1426890Y1521896D1*
X1430737Y1518093D1*
X1434539Y1516148D1*
X1440287Y1514247D1*
X1449882D1*
X1455586Y1516148D1*
X1459432Y1518093D1*
X1463235Y1521896D1*
X1465181Y1525743D1*
Y1533392D1*
X1463235Y1537194D1*
X1459433Y1541041D1*
X1455586Y1542942D1*
X1465181Y1574439D2*
X1425033D1*
X1451783Y1555294D1*
Y1583990D1*
X1384539Y2143893D2*
X1380737Y2141992D1*
X1376890Y2138145D1*
X1374989Y2134343D1*
X1374988Y2126693D1*
X1376890Y2122847D1*
X1380737Y2119044D1*
X1384539Y2117099D1*
X1390287Y2115197D1*
X1399882D1*
X1405586Y2117099D1*
X1409432Y2119044D1*
X1413235Y2122847D1*
X1415181Y2126693D1*
Y2134343D1*
X1413235Y2138145D1*
X1409433Y2141992D1*
X1405586Y2143893D1*
X1375033Y2179192D2*
Y2160091D1*
X1392233Y2158190D1*
X1390331Y2160091D1*
X1388386Y2165839D1*
Y2171543D1*
X1390331Y2177291D1*
X1394134Y2181138D1*
X1399882Y2183039D1*
X1403684D1*
X1409432Y2181138D1*
X1413279Y2177291D1*
X1415181Y2171543D1*
Y2165839D1*
X1413279Y2160091D1*
X1411334Y2158190D1*
X1407531Y2156244D1*
X1159539Y2269866D2*
X1155737Y2267965D1*
X1151890Y2264118D1*
X1149989Y2260315D1*
X1149988Y2252666D1*
X1151890Y2248819D1*
X1155737Y2245017D1*
X1159539Y2243071D1*
X1165287Y2241170D1*
X1174882D1*
X1180586Y2243071D1*
X1184432Y2245017D1*
X1188235Y2248819D1*
X1190181Y2252666D1*
Y2260315D1*
X1188235Y2264118D1*
X1184433Y2267965D1*
X1180586Y2269866D1*
X1155737Y2305165D2*
X1151934Y2303264D1*
X1150033Y2297516D1*
Y2293713D1*
X1151934Y2287965D1*
X1157682Y2284119D1*
X1167233Y2282217D1*
X1176783D1*
X1184432Y2284118D1*
X1188279Y2287965D1*
X1190181Y2293713D1*
Y2295615D1*
X1188279Y2301318D1*
X1184432Y2305165D1*
X1178684Y2307066D1*
X1176783D1*
X1171035Y2305165D1*
X1167233Y2301318D1*
X1165331Y2295615D1*
Y2293713D1*
X1167233Y2287965D1*
X1171035Y2284119D1*
X1176783Y2282217D1*
X1184539Y1556393D2*
X1180737Y1554492D1*
X1176890Y1550645D1*
X1174989Y1546843D1*
X1174988Y1539193D1*
X1176890Y1535347D1*
X1180737Y1531544D1*
X1184539Y1529599D1*
X1190287Y1527697D1*
X1199882D1*
X1205586Y1529599D1*
X1209432Y1531544D1*
X1213235Y1535347D1*
X1215181Y1539193D1*
Y1546843D1*
X1213235Y1550645D1*
X1209433Y1554492D1*
X1205586Y1556393D1*
X1215181Y1576394D2*
X1175033Y1595539D1*
Y1568745D1*
X1059539Y2268915D2*
X1055737Y2267014D1*
X1051890Y2263167D1*
X1049989Y2259365D1*
X1049988Y2251715D1*
X1051890Y2247869D1*
X1055737Y2244066D1*
X1059539Y2242121D1*
X1065287Y2240219D1*
X1074882D1*
X1080586Y2242121D1*
X1084432Y2244066D1*
X1088235Y2247869D1*
X1090181Y2251715D1*
Y2259365D1*
X1088235Y2263167D1*
X1084433Y2267014D1*
X1080586Y2268915D1*
X1050033Y2290817D2*
X1051934Y2285113D1*
X1055737Y2283168D1*
X1059583D1*
X1063386Y2285113D1*
X1065331Y2288916D1*
X1067233Y2296565D1*
X1069134Y2302313D1*
X1072981Y2306116D1*
X1076783Y2308017D1*
X1082531D1*
X1086334Y2306116D1*
X1088279Y2304214D1*
X1090181Y2298466D1*
Y2290817D1*
X1088279Y2285113D1*
X1086334Y2283168D1*
X1082531Y2281267D1*
X1076783D1*
X1072981Y2283168D1*
X1069134Y2287015D1*
X1067233Y2292718D1*
X1065331Y2300368D1*
X1063386Y2304215D1*
X1059583Y2306116D1*
X1055737D1*
X1051934Y2304215D1*
X1050033Y2298466D1*
Y2290817D1*
X1124551Y810948D2*
Y770756D1*
X1137948D1*
X1143696Y772701D1*
X1147543Y776504D1*
X1149444Y780351D1*
X1151346Y786054D1*
Y795649D1*
X1149444Y801397D1*
X1147543Y805200D1*
X1143696Y809047D1*
X1137948Y810948D1*
X1124551D1*
X1163697Y803254D2*
X1167544Y805200D1*
X1173292Y810904D1*
Y770756D1*
X577749Y2524035D2*
Y2493438D1*
X575848Y2487690D1*
X573902Y2485789D1*
X570100Y2483843D1*
X566253D1*
X562450Y2485789D1*
X560549Y2487690D1*
X558604Y2493438D1*
Y2497240D1*
X592046Y2514440D2*
Y2516342D1*
X593947Y2520188D1*
X595848Y2522090D1*
X599695Y2523991D1*
X607344D1*
X611147Y2522090D1*
X613048Y2520188D1*
X614994Y2516342D1*
Y2512539D1*
X613048Y2508692D1*
X609246Y2502989D1*
X590100Y2483843D1*
X616895D1*
X1069134Y1524748D2*
Y1541948D1*
X1067188Y1547696D1*
X1065287Y1549641D1*
X1061485Y1551542D1*
X1057638D1*
X1053835Y1549641D1*
X1051890Y1547696D1*
X1049989Y1541948D1*
X1049988Y1524748D1*
X1090180D1*
X1069134Y1538145D2*
X1090181Y1551542D1*
X1057682Y1563894D2*
X1055737Y1567741D1*
X1050033Y1573489D1*
X1090181D1*
X931634Y1253648D2*
Y1270848D1*
X929688Y1276596D1*
X927787Y1278541D1*
X923985Y1280443D1*
X920138D1*
X916335Y1278541D1*
X914390Y1276596D1*
X912489Y1270848D1*
X912488Y1253648D1*
X952680D1*
X931634Y1267045D2*
X952681Y1280442D1*
X922083Y1294739D2*
X920182D1*
X916335Y1296641D1*
X914434Y1298542D1*
X912533Y1302389D1*
Y1310038D1*
X914434Y1313841D1*
X916335Y1315742D1*
X920182Y1317687D1*
X923985D1*
X927831Y1315742D1*
X933535Y1311939D1*
X952681Y1292794D1*
Y1319588D1*
X944134Y941148D2*
Y958348D1*
X942188Y964096D1*
X940287Y966041D1*
X936485Y967943D1*
X932638D1*
X928835Y966041D1*
X926890Y964096D1*
X924989Y958348D1*
X924988Y941148D1*
X965180D1*
X944134Y954545D2*
X965181Y967942D1*
X925033Y984141D2*
Y1005143D1*
X940331Y993691D1*
Y999439D1*
X942233Y1003242D1*
X944134Y1005143D1*
X949882Y1007089D1*
X953684Y1007088D1*
X959432Y1005143D1*
X963279Y1001340D1*
X965181Y995592D1*
Y989844D1*
X963279Y984141D1*
X961334Y982239D1*
X957531Y980294D1*
X1436031Y1866949D2*
Y1838253D1*
X1437932Y1832505D1*
X1441779Y1828702D1*
X1447527Y1826757D1*
X1451330D1*
X1457078Y1828702D1*
X1460924Y1832505D1*
X1462826Y1838253D1*
Y1866949D1*
X1477122Y1857354D2*
Y1859255D1*
X1479024Y1863102D1*
X1480925Y1865003D1*
X1484772Y1866904D1*
X1492421D1*
X1496224Y1865003D1*
X1498125Y1863102D1*
X1500070Y1859255D1*
Y1855452D1*
X1498125Y1851606D1*
X1494322Y1845902D1*
X1475177Y1826757D1*
X1501972D1*
X529606Y2114600D2*
D77*
X523902Y2120370D1*
X515280Y2123222D1*
X503806D1*
X495184Y2120370D1*
X489414Y2114600D1*
Y2108896D1*
X492332Y2103126D1*
X495184Y2100274D1*
X500888Y2097422D1*
X518132Y2091652D1*
X523902Y2088800D1*
X526754Y2085882D1*
X529606Y2080178D1*
Y2071556D1*
X523902Y2065852D1*
X515280Y2062934D1*
X503806D1*
X495184Y2065852D1*
X489414Y2071556D1*
X548133Y2103126D2*
Y2042838D1*
Y2094504D2*
X553903Y2100208D1*
X559607Y2103126D1*
X568229D1*
X573999Y2100208D1*
X579703Y2094504D1*
X582621Y2085882D1*
Y2080112D1*
X579703Y2071556D1*
X573999Y2065786D1*
X568229Y2062934D1*
X559607D1*
X553903Y2065786D1*
X548133Y2071556D1*
X601148Y2123222D2*
Y2062934D1*
X629866Y2103126D2*
X601148Y2074408D1*
X612622Y2085882D2*
X632718Y2062934D1*
X651245Y2103126D2*
Y2062934D1*
Y2085882D2*
X654164Y2094504D1*
X659867Y2100274D1*
X665638Y2103126D1*
X674260D1*
X874905Y2390084D2*
X869201Y2387232D1*
X863431Y2381462D1*
X860579Y2375758D1*
Y2364284D1*
X863431Y2358514D1*
X869201Y2352810D1*
X874905Y2349892D1*
X883527Y2347040D1*
X897919D1*
X906475Y2349892D1*
X912245Y2352810D1*
X917949Y2358514D1*
X920867Y2364284D1*
Y2375758D1*
X917949Y2381462D1*
X912245Y2387232D1*
X906475Y2390084D1*
X897919D1*
Y2375758D1*
X880675Y2408611D2*
X920867D1*
X892149D2*
X883527Y2417233D1*
X880675Y2423003D1*
Y2431559D1*
X883527Y2437329D1*
X892149Y2440181D1*
X920867D1*
X860579Y2493130D2*
X920867D1*
X889297D2*
X883527Y2487426D1*
X880675Y2481656D1*
Y2473034D1*
X883527Y2467330D1*
X889297Y2461560D1*
X897919Y2458708D1*
X903623D1*
X912245Y2461560D1*
X917949Y2467330D1*
X920867Y2473034D1*
Y2481656D1*
X917949Y2487426D1*
X912245Y2493130D1*
X1073079Y2334540D2*
X1133367D1*
Y2354636D1*
X1130449Y2363258D1*
X1124745Y2369028D1*
X1118975Y2371880D1*
X1110419Y2374732D1*
X1096027D1*
X1087405Y2371880D1*
X1081701Y2369028D1*
X1075931Y2363258D1*
X1073079Y2354636D1*
Y2334540D1*
X1133367Y2439221D2*
X1073079Y2416207D1*
X1133367Y2393259D1*
X1113271Y2401881D2*
Y2430599D1*
X1073079Y2477844D2*
X1133367D1*
X1073079Y2457748D2*
Y2497940D1*
X1274905Y2390084D2*
X1269201Y2387232D1*
X1263431Y2381462D1*
X1260579Y2375758D1*
Y2364284D1*
X1263431Y2358514D1*
X1269201Y2352810D1*
X1274905Y2349892D1*
X1283527Y2347040D1*
X1297919D1*
X1306475Y2349892D1*
X1312245Y2352810D1*
X1317949Y2358514D1*
X1320867Y2364284D1*
Y2375758D1*
X1317949Y2381462D1*
X1312245Y2387232D1*
X1306475Y2390084D1*
X1260579Y2408611D2*
X1320867D1*
Y2443033D1*
X1260579Y2461560D2*
X1320867D1*
X1260579Y2501752D2*
X1300771Y2461560D1*
X1286379Y2475886D2*
X1320867Y2501752D1*
X1460645Y2418962D2*
Y2390310D1*
X1486445Y2387458D1*
X1483593Y2390310D1*
X1480675Y2398932D1*
Y2407488D1*
X1483593Y2416110D1*
X1489297Y2421880D1*
X1497919Y2424732D1*
X1503623D1*
X1512245Y2421880D1*
X1518015Y2416110D1*
X1520867Y2407488D1*
Y2398932D1*
X1518015Y2390310D1*
X1515097Y2387458D1*
X1509393Y2384540D1*
X1460579Y2443259D2*
X1520867Y2466207D1*
X1460579Y2489155D1*
X1634991Y2815144D2*
Y2754856D1*
X1669413D1*
X1725214Y2815144D2*
X1687940D1*
Y2754856D1*
X1725214D1*
X1687940Y2786426D2*
X1710888D1*
X1743741Y2815144D2*
Y2754856D1*
X1763837D1*
X1772459Y2757775D1*
X1778229Y2763478D1*
X1781081Y2769249D1*
X1783933Y2777804D1*
Y2792196D1*
X1781081Y2800818D1*
X1778229Y2806522D1*
X1772459Y2812292D1*
X1763837Y2815144D1*
X1743741D1*
X1900973Y2806522D2*
X1895270Y2812292D1*
X1886648Y2815144D1*
X1875174D1*
X1866552Y2812292D1*
X1860781Y2806522D1*
Y2800818D1*
X1863700Y2795048D1*
X1866552Y2792196D1*
X1872255Y2789345D1*
X1889499Y2783574D1*
X1895270Y2780722D1*
X1898122Y2777804D1*
X1900973Y2772100D1*
Y2763478D1*
X1895270Y2757775D1*
X1886648Y2754856D1*
X1875174D1*
X1866552Y2757775D1*
X1860781Y2763478D1*
X1928123Y2815144D2*
Y2766330D1*
X1930975Y2757775D1*
X1936745Y2754856D1*
X1942448D1*
X1919501Y2795048D2*
X1939597D1*
X1960976D2*
Y2754856D1*
Y2777804D2*
X1963894Y2786426D1*
X1969598Y2792196D1*
X1975368Y2795048D1*
X1983990D1*
X2002517Y2815144D2*
X2005369Y2812292D1*
X2008287Y2815144D1*
X2005369Y2818063D1*
X2002517Y2815144D1*
X2005369Y2795048D2*
Y2754856D1*
X2026814Y2795048D2*
Y2734760D1*
Y2786426D2*
X2032584Y2792130D1*
X2038288Y2795048D1*
X2046910D1*
X2052680Y2792130D1*
X2058384Y2786426D1*
X2061302Y2777804D1*
Y2772034D1*
X2058384Y2763478D1*
X2052680Y2757708D1*
X2046910Y2754856D1*
X2038288D1*
X2032584Y2757708D1*
X2026814Y2763478D1*
X1843453Y1629856D2*
X1820439Y1690144D1*
X1797491Y1629856D1*
X1806113Y1649952D2*
X1834831D1*
X1896469Y1661426D2*
X1890699Y1667196D1*
X1884929Y1670048D1*
X1876373D1*
X1870603Y1667196D1*
X1864899Y1661426D1*
X1861981Y1652804D1*
Y1647100D1*
X1864899Y1638478D1*
X1870603Y1632775D1*
X1876373Y1629856D1*
X1884929D1*
X1890699Y1632775D1*
X1896469Y1638478D1*
X1949484Y1661426D2*
X1943714Y1667196D1*
X1937944Y1670048D1*
X1929388D1*
X1923618Y1667196D1*
X1917914Y1661426D1*
X1914996Y1652804D1*
Y1647100D1*
X1917914Y1638478D1*
X1923618Y1632775D1*
X1929388Y1629856D1*
X1937944D1*
X1943714Y1632775D1*
X1949484Y1638478D1*
X1968011Y1652804D2*
X2002433D1*
Y1658574D1*
X1999581Y1664345D1*
X1996729Y1667196D1*
X1990959Y1670048D1*
X1982337D1*
X1976633Y1667196D1*
X1970863Y1661426D1*
X1968011Y1652804D1*
Y1647100D1*
X1970863Y1638478D1*
X1976633Y1632775D1*
X1982337Y1629856D1*
X1990959D1*
X1996729Y1632775D1*
X2002433Y1638478D1*
X2020960Y1690144D2*
Y1629856D1*
X2039487D2*
X2079679Y1690078D1*
X2141250Y1675818D2*
X2138398Y1681522D1*
X2132628Y1687292D1*
X2126924Y1690144D1*
X2115450D1*
X2109680Y1687292D1*
X2103976Y1681522D1*
X2101058Y1675818D1*
X2098206Y1667196D1*
Y1652804D1*
X2101058Y1644249D1*
X2103976Y1638478D1*
X2109680Y1632775D1*
X2115450Y1629856D1*
X2126924D1*
X2132628Y1632775D1*
X2138398Y1638478D1*
X2141250Y1644249D1*
Y1652804D1*
X2126924D1*
X2162696Y1670048D2*
X2179873Y1629856D1*
X2174170Y1618382D1*
X2168399Y1612612D1*
X2162696Y1609760D1*
X2159777D1*
X2197117Y1670048D2*
X2179873Y1629856D1*
X2215645Y1670048D2*
Y1629856D1*
Y1652804D2*
X2218563Y1661426D1*
X2224267Y1667196D1*
X2230037Y1670048D1*
X2238659D1*
X2271512D2*
X2265808Y1667196D1*
X2260038Y1661426D1*
X2257186Y1652804D1*
Y1647100D1*
X2260038Y1638478D1*
X2265808Y1632775D1*
X2271512Y1629856D1*
X2280134D1*
X2285904Y1632775D1*
X2291608Y1638478D1*
X2294526Y1647100D1*
Y1652804D1*
X2291608Y1661426D1*
X2285904Y1667196D1*
X2280134Y1670048D1*
X2271512D1*
X1831701Y2074732D2*
X1825931Y2069028D1*
X1823079Y2060406D1*
Y2048932D1*
X1825931Y2040310D1*
X1831701Y2034540D1*
X1837405D1*
X1843175Y2037458D1*
X1846027Y2040310D1*
X1848879Y2046014D1*
X1854649Y2063258D1*
X1857501Y2069028D1*
X1860419Y2071880D1*
X1866123Y2074732D1*
X1874745D1*
X1880449Y2069028D1*
X1883367Y2060406D1*
Y2048932D1*
X1880449Y2040310D1*
X1874745Y2034540D1*
X1823079Y2093259D2*
X1883367D1*
Y2113355D1*
X1880449Y2121977D1*
X1874745Y2127747D1*
X1868975Y2130599D1*
X1860419Y2133451D1*
X1846027D1*
X1837405Y2130599D1*
X1831701Y2127747D1*
X1825931Y2121977D1*
X1823079Y2113355D1*
Y2093259D1*
X1883367Y2197940D2*
X1823079Y2174926D1*
X1883367Y2151978D1*
X1863271Y2160600D2*
Y2189318D1*
X1956701Y2074732D2*
X1950931Y2069028D1*
X1948079Y2060406D1*
Y2048932D1*
X1950931Y2040310D1*
X1956701Y2034540D1*
X1962405D1*
X1968175Y2037458D1*
X1971027Y2040310D1*
X1973879Y2046014D1*
X1979649Y2063258D1*
X1982501Y2069028D1*
X1985419Y2071880D1*
X1991123Y2074732D1*
X1999745D1*
X2005449Y2069028D1*
X2008367Y2060406D1*
Y2048932D1*
X2005449Y2040310D1*
X1999745Y2034540D1*
X1962405Y2136303D2*
X1956701Y2133451D1*
X1950931Y2127681D1*
X1948079Y2121977D1*
Y2110503D1*
X1950931Y2104733D1*
X1956701Y2099029D1*
X1962405Y2096111D1*
X1971027Y2093259D1*
X1985419D1*
X1993975Y2096111D1*
X1999745Y2099029D1*
X2005449Y2104733D1*
X2008367Y2110503D1*
Y2121977D1*
X2005449Y2127681D1*
X1999745Y2133451D1*
X1993975Y2136303D1*
X1948079Y2154830D2*
X2008367D1*
Y2189252D1*
X2223079Y2034540D2*
X2283367Y2057488D1*
X2223079Y2080436D1*
X2251797Y2133451D2*
X2246027Y2127681D1*
X2243175Y2121911D1*
Y2113355D1*
X2246027Y2107585D1*
X2251797Y2101881D1*
X2260419Y2098963D1*
X2266123D1*
X2274745Y2101881D1*
X2280449Y2107585D1*
X2283367Y2113355D1*
Y2121911D1*
X2280449Y2127681D1*
X2274745Y2133451D1*
X2251797Y2186466D2*
X2246027Y2180696D1*
X2243175Y2174926D1*
Y2166370D1*
X2246027Y2160600D1*
X2251797Y2154896D1*
X2260419Y2151978D1*
X2266123D1*
X2274745Y2154896D1*
X2280449Y2160600D1*
X2283367Y2166370D1*
Y2174926D1*
X2280449Y2180696D1*
X2274745Y2186466D1*
X2099905Y2077584D2*
X2094201Y2074732D1*
X2088431Y2068962D1*
X2085579Y2063258D1*
Y2051784D1*
X2088431Y2046014D1*
X2094201Y2040310D1*
X2099905Y2037392D1*
X2108527Y2034540D1*
X2122919D1*
X2131475Y2037392D1*
X2137245Y2040310D1*
X2142949Y2046014D1*
X2145867Y2051784D1*
Y2063258D1*
X2142949Y2068962D1*
X2137245Y2074732D1*
X2131475Y2077584D1*
X2122919D1*
Y2063258D1*
X2105675Y2096111D2*
X2145867D1*
X2117149D2*
X2108527Y2104733D1*
X2105675Y2110503D1*
Y2119059D1*
X2108527Y2124829D1*
X2117149Y2127681D1*
X2145867D1*
X2085579Y2180630D2*
X2145867D1*
X2114297D2*
X2108527Y2174926D1*
X2105675Y2169156D1*
Y2160534D1*
X2108527Y2154830D1*
X2114297Y2149060D1*
X2122919Y2146208D1*
X2128623D1*
X2137245Y2149060D1*
X2142949Y2154830D1*
X2145867Y2160534D1*
Y2169156D1*
X2142949Y2174926D1*
X2137245Y2180630D1*
X460579Y879636D2*
X520867D1*
X460579Y859540D2*
Y899732D1*
Y918259D2*
X520867Y932651D1*
X460579Y946977D1*
X520867Y961303D1*
X460579Y975695D1*
X520867Y1040184D2*
X460579Y1017170D1*
X520867Y994222D1*
X500771Y1002844D2*
Y1031562D1*
X460579Y1098903D2*
X520867D1*
X460579Y1058711D1*
X520867D1*
X474905Y1160474D2*
X469201Y1157623D1*
X463431Y1151852D1*
X460579Y1146149D1*
Y1134675D1*
X463431Y1128905D1*
X469201Y1123201D1*
X474905Y1120282D1*
X483527Y1117431D1*
X497919D1*
X506475Y1120282D1*
X512245Y1123201D1*
X517949Y1128905D1*
X520867Y1134675D1*
Y1146149D1*
X517949Y1151852D1*
X512245Y1157623D1*
X506475Y1160474D1*
X497919D1*
Y1146149D1*
X460645Y1184772D2*
Y1216275D1*
X483593Y1199098D1*
Y1207720D1*
X486445Y1213423D1*
X489297Y1216275D1*
X497919Y1219194D1*
X503623D1*
X512245Y1216275D1*
X518015Y1210572D1*
X520867Y1201949D1*
Y1193327D1*
X518015Y1184772D1*
X515097Y1181920D1*
X509393Y1179002D1*
X474971Y1240639D2*
X472119D1*
X466349Y1243491D1*
X463497Y1246343D1*
X460645Y1252113D1*
Y1263587D1*
X463497Y1269291D1*
X466349Y1272143D1*
X472119Y1275061D1*
X477823D1*
X483593Y1272143D1*
X492149Y1266439D1*
X520867Y1237721D1*
Y1277913D1*
X469201Y1394953D2*
X463431Y1389249D1*
X460579Y1380627D1*
Y1369153D1*
X463431Y1360531D1*
X469201Y1354761D1*
X474905D1*
X480675Y1357679D1*
X483527Y1360531D1*
X486379Y1366235D1*
X492149Y1383479D1*
X495001Y1389249D1*
X497919Y1392101D1*
X503623Y1394953D1*
X512245D1*
X517949Y1389249D1*
X520867Y1380627D1*
Y1369153D1*
X517949Y1360531D1*
X512245Y1354761D1*
X460579Y1413480D2*
X520867D1*
X492149D2*
X483527Y1422102D1*
X480675Y1427872D1*
Y1436494D1*
X483527Y1442198D1*
X492149Y1445050D1*
X520867D1*
X460579Y1463577D2*
X463431Y1466429D1*
X460579Y1469347D1*
X457661Y1466429D1*
X460579Y1463577D1*
X480675Y1466429D2*
X520867D1*
X497919Y1487874D2*
Y1522296D1*
X492149D1*
X486379Y1519444D1*
X483527Y1516592D1*
X480675Y1510822D1*
Y1502200D1*
X483527Y1496496D1*
X489297Y1490726D1*
X497919Y1487874D1*
X503623D1*
X512245Y1490726D1*
X517949Y1496496D1*
X520867Y1502200D1*
Y1510822D1*
X517949Y1516592D1*
X512245Y1522296D1*
X460579Y1540823D2*
X520867D1*
X460579Y1593772D2*
X520867D1*
X489297D2*
X483527Y1588068D1*
X480675Y1582298D1*
Y1573676D1*
X483527Y1567972D1*
X489297Y1562202D1*
X497919Y1559350D1*
X503623D1*
X512245Y1562202D1*
X517949Y1567972D1*
X520867Y1573676D1*
Y1582298D1*
X517949Y1588068D1*
X512245Y1593772D1*
X460579Y1670620D2*
X520867Y1693568D1*
X460579Y1716516D1*
X474971Y1737962D2*
X472119D1*
X466349Y1740814D1*
X463497Y1743665D1*
X460645Y1749436D1*
Y1760910D1*
X463497Y1766613D1*
X466349Y1769465D1*
X472119Y1772383D1*
X477823D1*
X483593Y1769465D1*
X492149Y1763761D1*
X520867Y1735043D1*
Y1775235D1*
X585579Y897040D2*
X645867D1*
Y922906D1*
X642949Y931528D1*
X640097Y934380D1*
X634393Y937232D1*
X625771D1*
X620001Y934380D1*
X617149Y931528D1*
X614297Y922906D1*
X611379Y931528D1*
X608527Y934380D1*
X602823Y937232D1*
X597053D1*
X591349Y934380D1*
X588431Y931528D1*
X585579Y922906D1*
Y897040D1*
X614297D2*
Y922906D1*
X640097Y958611D2*
X643015Y955759D1*
X645867Y958611D1*
X643015Y961529D1*
X640097Y958611D1*
X585579Y1038377D2*
X645867D1*
Y1058473D1*
X642949Y1067095D1*
X637245Y1072866D1*
X631475Y1075718D1*
X622919Y1078569D1*
X608527D1*
X599905Y1075718D1*
X594201Y1072866D1*
X588431Y1067095D1*
X585579Y1058473D1*
Y1038377D1*
X605675Y1097097D2*
X645867D1*
X622919D2*
X614297Y1100015D1*
X608527Y1105719D1*
X605675Y1111489D1*
Y1120111D1*
X585579Y1138638D2*
X588431Y1141490D1*
X585579Y1144408D1*
X582661Y1141490D1*
X585579Y1138638D1*
X605675Y1141490D2*
X645867D1*
X605675Y1162935D2*
X645867D1*
X617149D2*
X608527Y1171557D1*
X605675Y1177327D1*
Y1185883D1*
X608527Y1191653D1*
X617149Y1194505D1*
X645867D1*
X608527Y1247454D2*
X654489D1*
X663045Y1244602D1*
X665963Y1241750D1*
X668815Y1235980D1*
Y1227358D1*
X665963Y1221654D1*
X617149Y1247454D2*
X611445Y1241750D1*
X608527Y1235980D1*
Y1227358D1*
X611445Y1221654D1*
X617149Y1215884D1*
X625771Y1213032D1*
X631541D1*
X640097Y1215884D1*
X645867Y1221654D1*
X648719Y1227358D1*
Y1235980D1*
X645867Y1241750D1*
X640097Y1247454D1*
X569860Y1344398D2*
X575564Y1338628D1*
X584186Y1332924D1*
X595660Y1327154D1*
X610052Y1324302D1*
X621526D1*
X635852Y1327154D1*
X647326Y1332924D1*
X655948Y1338628D1*
X661652Y1344398D1*
X614297Y1397414D2*
X608527Y1391643D1*
X605675Y1385873D1*
Y1377318D1*
X608527Y1371547D1*
X614297Y1365844D1*
X622919Y1362925D1*
X628623D1*
X637245Y1365844D1*
X642949Y1371547D1*
X645867Y1377318D1*
Y1385873D1*
X642949Y1391643D1*
X637245Y1397414D1*
X569860Y1415941D2*
X575564Y1421711D1*
X584186Y1427415D1*
X595660Y1433185D1*
X610052Y1436037D1*
X621526D1*
X635852Y1433185D1*
X647326Y1427415D1*
X655948Y1421711D1*
X661652Y1415941D1*
X599971Y1515803D2*
X597119D1*
X591349Y1518655D1*
X588497Y1521507D1*
X585645Y1527277D1*
Y1538751D1*
X588497Y1544455D1*
X591349Y1547307D1*
X597119Y1550225D1*
X602823D1*
X608593Y1547307D1*
X617149Y1541603D1*
X645867Y1512885D1*
Y1553077D1*
X585645Y1588848D2*
X588497Y1580226D1*
X597119Y1574456D1*
X611445Y1571604D1*
X620067D1*
X634393Y1574456D1*
X643015Y1580226D1*
X645867Y1588848D1*
Y1594552D1*
X643015Y1603174D1*
X634393Y1608878D1*
X620067Y1611796D1*
X611445D1*
X597119Y1608878D1*
X588497Y1603174D1*
X585645Y1594552D1*
Y1588848D1*
X597119Y1608878D2*
X634393Y1574456D1*
X597119Y1630323D2*
X594201Y1636093D1*
X585645Y1644715D1*
X645867D1*
X585645Y1677568D2*
X588497Y1669013D1*
X594201Y1666094D1*
X599971D1*
X605675Y1669013D1*
X608593Y1674716D1*
X611445Y1686190D1*
X614297Y1694812D1*
X620067Y1700516D1*
X625771Y1703368D1*
X634393D1*
X640097Y1700516D1*
X643015Y1697664D1*
X645867Y1689042D1*
Y1677568D1*
X643015Y1669013D1*
X640097Y1666094D1*
X634393Y1663242D1*
X625771D1*
X620067Y1666094D1*
X614297Y1671864D1*
X611445Y1680420D1*
X608593Y1691894D1*
X605675Y1697664D1*
X599971Y1700516D1*
X594201D1*
X588497Y1697664D1*
X585645Y1689042D1*
Y1677568D1*
X1854061Y2625752D2*
X1845439D1*
X1839735Y2622900D1*
X1836817Y2620048D1*
X1833965Y2614278D1*
Y2602804D1*
X1836817Y2599952D1*
X1842587D1*
X1854061Y2602804D1*
X1856913Y2597100D1*
X1859765D1*
X1865535Y2602804D1*
X1868387Y2617130D1*
X1865535Y2625752D1*
X1862683Y2631522D1*
X1856913Y2637226D1*
X1851209Y2640078D1*
X1839735D1*
X1833965Y2637226D1*
X1828261Y2631522D1*
X1825343Y2625752D1*
X1822491Y2617130D1*
Y2602804D1*
X1825343Y2594182D1*
X1828261Y2588478D1*
X1833965Y2582708D1*
X1839735Y2579856D1*
X1851209D1*
X1856913Y2582708D1*
X1862683Y2588478D1*
X1854061Y2628604D2*
Y2602804D1*
X1886914Y2640144D2*
Y2579856D1*
X1912780D1*
X1921402Y2582775D1*
X1924254Y2585626D1*
X1927106Y2591330D1*
Y2599952D1*
X1924254Y2605722D1*
X1921402Y2608574D1*
X1912780Y2611426D1*
X1921402Y2614345D1*
X1924254Y2617196D1*
X1927106Y2622900D1*
Y2628670D1*
X1924254Y2634374D1*
X1921402Y2637292D1*
X1912780Y2640144D1*
X1886914D1*
Y2611426D2*
X1912780D1*
X1945633Y2620048D2*
Y2591330D1*
X1948485Y2582775D1*
X1954255Y2579856D1*
X1962877D1*
X1968581Y2582775D1*
X1977203Y2591330D1*
Y2620048D2*
Y2579856D1*
X1995730Y2640144D2*
X1998582Y2637292D1*
X2001501Y2640144D1*
X1998582Y2643063D1*
X1995730Y2640144D1*
X1998582Y2620048D2*
Y2579856D1*
X2020028Y2640144D2*
Y2579856D1*
X2072977Y2640144D2*
Y2579856D1*
Y2611426D2*
X2067273Y2617196D1*
X2061503Y2620048D1*
X2052881D1*
X2047177Y2617196D1*
X2041407Y2611426D1*
X2038555Y2602804D1*
Y2597100D1*
X2041407Y2588478D1*
X2047177Y2582775D1*
X2052881Y2579856D1*
X2061503D1*
X2067273Y2582775D1*
X2072977Y2588478D1*
X2091504Y2640144D2*
Y2579856D1*
X2124357Y2620048D2*
X2118653Y2617196D1*
X2112883Y2611426D1*
X2110031Y2602804D1*
Y2597100D1*
X2112883Y2588478D1*
X2118653Y2582775D1*
X2124357Y2579856D1*
X2132979D1*
X2138749Y2582775D1*
X2144453Y2588478D1*
X2147371Y2597100D1*
Y2602804D1*
X2144453Y2611426D1*
X2138749Y2617196D1*
X2132979Y2620048D1*
X2124357D1*
X2200320Y2617196D2*
Y2571234D1*
X2197468Y2562679D1*
X2194616Y2559760D1*
X2188846Y2556908D1*
X2180224D1*
X2174520Y2559760D1*
X2200320Y2608574D2*
X2194616Y2614278D1*
X2188846Y2617196D1*
X2180224D1*
X2174520Y2614278D1*
X2168750Y2608574D1*
X2165898Y2599952D1*
Y2594182D1*
X2168750Y2585626D1*
X2174520Y2579856D1*
X2180224Y2577004D1*
X2188846D1*
X2194616Y2579856D1*
X2200320Y2585626D1*
X1684991Y2507548D2*
X1696465Y2467356D1*
X1707939Y2507548D1*
X1719413Y2467356D1*
X1730887Y2507548D1*
X1749414D2*
X1760888Y2467356D1*
X1772362Y2507548D1*
X1783836Y2467356D1*
X1795310Y2507548D1*
X1813837D2*
X1825311Y2467356D1*
X1836785Y2507548D1*
X1848259Y2467356D1*
X1859733Y2507548D1*
X1881112Y2473126D2*
X1878260Y2470208D1*
X1881112Y2467356D1*
X1884030Y2470208D1*
X1881112Y2473126D1*
X1902557Y2527644D2*
Y2467356D1*
Y2498926D2*
X1908327Y2504696D1*
X1914031Y2507548D1*
X1922653D1*
X1928357Y2504696D1*
X1934127Y2498926D1*
X1936979Y2490304D1*
Y2484600D1*
X1934127Y2475978D1*
X1928357Y2470275D1*
X1922653Y2467356D1*
X1914031D1*
X1908327Y2470275D1*
X1902557Y2475978D1*
X1955506Y2507548D2*
Y2478830D1*
X1958358Y2470275D1*
X1964128Y2467356D1*
X1972750D1*
X1978454Y2470275D1*
X1987076Y2478830D1*
Y2507548D2*
Y2467356D1*
X2005603Y2527644D2*
X2008455Y2524792D1*
X2011373Y2527644D1*
X2008455Y2530563D1*
X2005603Y2527644D1*
X2008455Y2507548D2*
Y2467356D1*
X2029901Y2527644D2*
Y2467356D1*
X2082850Y2527644D2*
Y2467356D1*
Y2498926D2*
X2077146Y2504696D1*
X2071376Y2507548D1*
X2062754D1*
X2057050Y2504696D1*
X2051280Y2498926D1*
X2048428Y2490304D1*
Y2484600D1*
X2051280Y2475978D1*
X2057050Y2470275D1*
X2062754Y2467356D1*
X2071376D1*
X2077146Y2470275D1*
X2082850Y2475978D1*
X2101377Y2527644D2*
Y2467356D1*
X2134230Y2507548D2*
X2128526Y2504696D1*
X2122756Y2498926D1*
X2119904Y2490304D1*
Y2484600D1*
X2122756Y2475978D1*
X2128526Y2470275D1*
X2134230Y2467356D1*
X2142852D1*
X2148622Y2470275D1*
X2154326Y2475978D1*
X2157244Y2484600D1*
Y2490304D1*
X2154326Y2498926D1*
X2148622Y2504696D1*
X2142852Y2507548D1*
X2134230D1*
X2210193Y2504696D2*
Y2458734D1*
X2207341Y2450179D1*
X2204489Y2447260D1*
X2198719Y2444408D1*
X2190097D1*
X2184393Y2447260D1*
X2210193Y2496074D2*
X2204489Y2501778D1*
X2198719Y2504696D1*
X2190097D1*
X2184393Y2501778D1*
X2178623Y2496074D1*
X2175771Y2487452D1*
Y2481682D1*
X2178623Y2473126D1*
X2184393Y2467356D1*
X2190097Y2464504D1*
X2198719D1*
X2204489Y2467356D1*
X2210193Y2473126D1*
X2231572D2*
X2228720Y2470208D1*
X2231572Y2467356D1*
X2234490Y2470208D1*
X2231572Y2473126D1*
X2253017Y2507548D2*
Y2467356D1*
Y2496074D2*
X2261639Y2504696D1*
X2267409Y2507548D1*
X2275965D1*
X2281735Y2504696D1*
X2284587Y2496074D1*
Y2467356D1*
X2303114Y2490304D2*
X2337536D1*
Y2496074D1*
X2334684Y2501845D1*
X2331832Y2504696D1*
X2326062Y2507548D1*
X2317440D1*
X2311736Y2504696D1*
X2305966Y2498926D1*
X2303114Y2490304D1*
Y2484600D1*
X2305966Y2475978D1*
X2311736Y2470275D1*
X2317440Y2467356D1*
X2326062D1*
X2331832Y2470275D1*
X2337536Y2475978D1*
X2364685Y2527644D2*
Y2478830D1*
X2367537Y2470275D1*
X2373307Y2467356D1*
X2379011D1*
X2356063Y2507548D2*
X2376159D1*
X1155804Y532818D2*
D79*
Y482600D1*
X1159131Y472541D1*
X1165863Y465886D1*
X1175922Y462482D1*
X1182576D1*
X1192635Y465886D1*
X1199367Y472541D1*
X1202694Y482600D1*
Y532818D1*
X1271200Y522759D2*
X1264546Y529491D1*
X1254487Y532818D1*
X1241100D1*
X1231041Y529491D1*
X1224309Y522759D1*
Y516104D1*
X1227714Y509372D1*
X1231041Y506045D1*
X1237696Y502718D1*
X1257814Y495986D1*
X1264546Y492659D1*
X1267873Y489254D1*
X1271200Y482600D1*
Y472541D1*
X1264546Y465886D1*
X1254487Y462482D1*
X1241100D1*
X1231041Y465886D1*
X1224309Y472541D1*
X1292815Y532818D2*
Y462482D1*
X1322992D1*
X1333051Y465886D1*
X1336378Y469214D1*
X1339706Y475868D1*
Y485927D1*
X1336378Y492659D1*
X1333051Y495986D1*
X1322992Y499313D1*
X1333051Y502718D1*
X1336378Y506045D1*
X1339706Y512700D1*
Y519432D1*
X1336378Y526086D1*
X1333051Y529491D1*
X1322992Y532818D1*
X1292815D1*
Y499313D2*
X1322992D1*
M02*
